<svg xmlns="http://www.w3.org/2000/svg" viewBox="0 0 1200 800" width="1200" height="800" role="img" aria-label="Placeholder">
  <defs>
    <linearGradient id="p2sky" x1="0" y1="0" x2="1" y2="1">
      <stop offset="0" stop-color="#242424"/>
      <stop offset="1" stop-color="#101010"/>
    </linearGradient>
  </defs>
  <rect width="1200" height="800" fill="url(#p2sky)"/>
  <g fill="#333">
    <rect x="330" y="90" width="230" height="710"/>
    <rect x="600" y="230" width="180" height="570"/>
    <rect x="820" y="360" width="140" height="440"/>
  </g>
  <g fill="#0d0d0d">
    <rect x="350" y="120" width="42" height="650"/>
    <rect x="412" y="120" width="42" height="650"/>
    <rect x="474" y="120" width="42" height="650"/>
    <rect x="620" y="260" width="48" height="510"/>
    <rect x="690" y="260" width="48" height="510"/>
    <rect x="840" y="390" width="44" height="380"/>
    <rect x="902" y="390" width="44" height="380"/>
  </g>
  <rect x="330" y="90" width="230" height="10" fill="#55b055"/>
  <g stroke="#55b055" stroke-width="3" opacity="0.5">
    <line x1="600" y1="230" x2="780" y2="230"/>
    <line x1="820" y1="360" x2="960" y2="360"/>
  </g>
  <rect x="120" y="640" width="150" height="160" fill="#2b2b2b"/>
  <rect y="770" width="1200" height="30" fill="#0b0b0b"/>
</svg>
