<svg viewBox="0 0 42 42" fill="none" xmlns="http://www.w3.org/2000/svg">
    <rect x="0.5" y="0.5" width="41" height="41" rx="20.5" stroke="#121212"/>
    <path d="M27.3602 23.2462L23.84 21.4862C23.7707 21.4517 23.6935 21.436 23.6163 21.4409C23.539 21.4457 23.4644 21.4708 23.3999 21.5137L21.5694 22.7347C20.5632 22.2522 19.7517 21.4408 19.2691 20.4346L20.4902 18.6042C20.5331 18.5398 20.5582 18.4651 20.5631 18.3879C20.5679 18.3106 20.5523 18.2335 20.5177 18.1642L18.7576 14.6442C18.7211 14.5707 18.6648 14.5089 18.595 14.4658C18.5252 14.4226 18.4447 14.3998 18.3627 14.4C17.3123 14.4 16.305 14.8172 15.5623 15.5599C14.8196 16.3025 14.4024 17.3097 14.4024 18.36C14.405 20.8098 15.3794 23.1585 17.1118 24.8908C18.8442 26.623 21.1931 27.5974 23.6431 27.6C24.6934 27.6 25.7007 27.1828 26.4434 26.4401C27.1861 25.6975 27.6034 24.6903 27.6034 23.64C27.6034 23.5583 27.5807 23.4781 27.5378 23.4086C27.4948 23.339 27.4333 23.2828 27.3602 23.2462ZM23.6431 26.72C21.4264 26.7177 19.3012 25.8361 17.7338 24.2688C16.1664 22.7015 15.2848 20.5765 15.2824 18.36C15.2823 17.5891 15.5713 16.8462 16.0923 16.278C16.6133 15.7098 17.3284 15.3576 18.0964 15.291L19.6146 18.3281L18.4045 20.1475C18.3641 20.2075 18.3392 20.2766 18.3319 20.3485C18.3246 20.4205 18.3352 20.4931 18.3627 20.56C18.9473 21.9498 20.053 23.0554 21.4429 23.64C21.5099 23.6678 21.5827 23.6787 21.6548 23.6716C21.727 23.6645 21.7963 23.6396 21.8565 23.5993L23.6761 22.3893L26.7134 23.9073C26.6465 24.6753 26.294 25.3903 25.7255 25.911C25.1571 26.4318 24.414 26.7204 23.6431 26.72ZM21.0029 10C19.0877 9.99964 17.2057 10.4992 15.5428 11.4493C13.88 12.3995 12.4941 13.7672 11.5221 15.4172C10.5501 17.0673 10.0258 18.9425 10.0009 20.8573C9.97608 22.7721 10.4516 24.6603 11.3804 26.335L10.0713 30.2609C9.99378 30.4935 9.98252 30.7431 10.0388 30.9817C10.0952 31.2203 10.2168 31.4385 10.3902 31.6119C10.5636 31.7852 10.7818 31.9069 11.0204 31.9632C11.2591 32.0195 11.5087 32.0083 11.7413 31.9307L15.6675 30.6217C17.1361 31.4354 18.7716 31.9022 20.4485 31.9862C22.1255 32.0702 23.7994 31.7693 25.3421 31.1065C26.8848 30.4437 28.2552 29.4366 29.3485 28.1623C30.4418 26.8881 31.2288 25.3805 31.6494 23.7551C32.0699 22.1297 32.1128 20.4296 31.7747 18.785C31.4366 17.1405 30.7265 15.5952 29.6988 14.2674C28.6712 12.9397 27.3532 11.8648 25.8459 11.1251C24.3386 10.3854 22.6819 10.0006 21.0029 10ZM21.0029 31.12C19.2234 31.1205 17.4753 30.652 15.9348 29.7615C15.8678 29.723 15.792 29.7025 15.7148 29.7021C15.6673 29.7022 15.6201 29.71 15.5751 29.7252L11.463 31.0958C11.3854 31.1217 11.3022 31.1254 11.2227 31.1066C11.1431 31.0879 11.0704 31.0473 11.0126 30.9895C10.9548 30.9317 10.9142 30.859 10.8955 30.7795C10.8767 30.6999 10.8805 30.6167 10.9063 30.5392L12.277 26.4274C12.2968 26.3683 12.3038 26.3057 12.2975 26.2436C12.2913 26.1816 12.2719 26.1217 12.2407 26.0677C11.1249 24.1391 10.6768 21.8962 10.9659 19.687C11.255 17.4778 12.2651 15.4257 13.8396 13.8491C15.4141 12.2725 17.4649 11.2596 19.6739 10.9674C21.8829 10.6752 24.1266 11.1201 26.0569 12.2332C27.9871 13.3462 29.4961 15.0651 30.3498 17.1231C31.2034 19.1812 31.3539 21.4635 30.7779 23.6158C30.202 25.7682 28.9317 27.6703 27.1643 29.0271C25.3969 30.3839 23.2311 31.1196 21.0029 31.12Z" fill="#121212"/>
</svg>
