<svg width="232" height="108" viewBox="0 0 232 108" fill="none" xmlns="http://www.w3.org/2000/svg">
<path d="M67.2754 80.4922C68.9134 80.4922 70.5269 80.6898 72.1152 81.0869C73.7037 81.4592 75.1061 82.0304 76.3223 82.7998L74.4609 87.3789C73.2447 86.6839 72.0277 86.1752 70.8115 85.8525C69.5955 85.5051 68.4037 85.332 67.2373 85.332C66.071 85.3321 65.1156 85.4682 64.3711 85.7412C63.6265 86.0142 63.0932 86.3745 62.7705 86.8213C62.4478 87.2432 62.2861 87.7397 62.2861 88.3105C62.2862 88.9805 62.5595 89.5264 63.1055 89.9482C63.6515 90.3453 64.3712 90.6678 65.2646 90.916C66.1582 91.1642 67.1388 91.4129 68.2061 91.6611C69.2979 91.9093 70.3773 92.195 71.4443 92.5176C72.5363 92.8402 73.5294 93.2744 74.4229 93.8203C75.3164 94.3664 76.037 95.086 76.583 95.9795C77.1539 96.873 77.4395 98.003 77.4395 99.3682C77.4394 100.832 77.0289 102.173 76.21 103.389C75.3909 104.605 74.1625 105.586 72.5244 106.33C70.9112 107.075 68.8636 107.446 66.3818 107.446C64.2971 107.446 62.2987 107.174 60.3877 106.628C58.4765 106.057 56.9371 105.324 55.7705 104.431L57.8184 99.8887C58.9353 100.683 60.2506 101.341 61.7646 101.862C63.3035 102.359 64.8553 102.606 66.4189 102.606C67.6101 102.606 68.5654 102.495 69.2852 102.271C70.0298 102.023 70.5763 101.689 70.9238 101.267C71.2713 100.845 71.4443 100.36 71.4443 99.8145C71.4443 99.1196 71.1718 98.5739 70.626 98.1768C70.08 97.7549 69.3602 97.4191 68.4668 97.1709C67.5734 96.8979 66.5802 96.6501 65.4883 96.4268C64.4211 96.1786 63.341 95.8807 62.249 95.5332C61.1817 95.1857 60.2012 94.7384 59.3076 94.1924C58.4142 93.6464 57.6822 92.9266 57.1113 92.0332C56.5653 91.1397 56.292 89.9982 56.292 88.6084C56.292 87.1192 56.6891 85.766 57.4834 84.5498C58.3025 83.3088 59.5185 82.3282 61.1318 81.6084C62.77 80.8638 64.8182 80.4922 67.2754 80.4922ZM154.319 80.4922C155.957 80.4922 157.571 80.6898 159.159 81.0869C160.748 81.4592 162.15 82.0304 163.366 82.7998L161.505 87.3789C160.289 86.684 159.073 86.1752 157.856 85.8525C156.64 85.5051 155.449 85.332 154.282 85.332C153.116 85.332 152.16 85.4682 151.415 85.7412C150.671 86.0142 150.137 86.3746 149.814 86.8213C149.492 87.2432 149.33 87.7398 149.33 88.3105C149.33 88.9805 149.604 89.5264 150.149 89.9482C150.695 90.3453 151.415 90.6678 152.309 90.916C153.202 91.1642 154.183 91.4129 155.25 91.6611C156.342 91.9093 157.422 92.1949 158.489 92.5176C159.581 92.8402 160.574 93.2743 161.468 93.8203C162.361 94.3663 163.081 95.0861 163.627 95.9795C164.198 96.873 164.483 98.003 164.483 99.3682C164.483 100.832 164.074 102.173 163.255 103.389C162.436 104.605 161.207 105.585 159.569 106.33C157.956 107.075 155.908 107.446 153.426 107.446C151.341 107.446 149.343 107.174 147.432 106.628C145.52 106.057 143.982 105.324 142.815 104.431L144.862 99.8887C145.979 100.683 147.296 101.341 148.81 101.862C150.348 102.359 151.899 102.606 153.463 102.606C154.654 102.606 155.61 102.495 156.33 102.271C157.074 102.023 157.62 101.688 157.968 101.267C158.315 100.845 158.489 100.361 158.489 99.8145C158.489 99.1195 158.216 98.5739 157.67 98.1768C157.124 97.7548 156.404 97.4191 155.511 97.1709C154.617 96.8979 153.624 96.6501 152.532 96.4268C151.465 96.1786 150.385 95.8807 149.293 95.5332C148.226 95.1857 147.245 94.7384 146.352 94.1924C145.458 93.6464 144.726 92.9266 144.155 92.0332C143.609 91.1398 143.336 89.9981 143.336 88.6084C143.336 87.1192 143.733 85.766 144.527 84.5498C145.346 83.3089 146.563 82.3282 148.176 81.6084C149.814 80.8638 151.862 80.4922 154.319 80.4922ZM192.027 80.4922C194.336 80.4922 196.408 80.8761 198.245 81.6455C200.107 82.4149 201.67 83.5327 202.936 84.9971L199.064 88.5703C198.121 87.5775 197.091 86.8456 195.974 86.374C194.857 85.8777 193.641 85.6299 192.325 85.6299C191.059 85.6299 189.905 85.8285 188.862 86.2256C187.82 86.6227 186.914 87.193 186.145 87.9375C185.4 88.682 184.817 89.5636 184.396 90.5811C183.998 91.5986 183.8 92.7279 183.8 93.9688C183.8 95.185 183.998 96.3027 184.396 97.3203C184.817 98.3378 185.4 99.2316 186.145 100.001C186.914 100.745 187.808 101.316 188.825 101.713C189.868 102.11 191.01 102.309 192.251 102.309C193.442 102.309 194.596 102.122 195.713 101.75C196.127 101.606 196.537 101.427 196.941 101.214V93.5596H202.452V104.133L202.184 104.33C200.83 105.302 199.268 106.056 197.5 106.591C195.639 107.162 193.777 107.446 191.916 107.446C189.856 107.446 187.957 107.124 186.22 106.479C184.507 105.808 183.005 104.865 181.715 103.649C180.449 102.433 179.456 101.006 178.736 99.3682C178.041 97.73 177.693 95.9296 177.693 93.9688C177.693 92.0081 178.041 90.2083 178.736 88.5703C179.456 86.9324 180.461 85.5051 181.752 84.2891C183.043 83.073 184.557 82.1424 186.294 81.4971C188.031 80.8269 189.942 80.4922 192.027 80.4922ZM29.2256 107H22.8965L20.583 101.415H8.50293L6.18066 107H0L11.6162 80.9385H17.5732L29.2256 107ZM42.4658 80.9385C44.7989 80.9385 46.8103 81.3233 48.498 82.0928C50.1856 82.8374 51.4889 83.9174 52.4072 85.332C53.3254 86.7467 53.7842 88.4349 53.7842 90.3955C53.7841 92.3311 53.3253 94.0063 52.4072 95.4209C51.4889 96.8107 50.1857 97.8784 48.498 98.623C48.4811 98.6305 48.4633 98.6371 48.4463 98.6445L54.2686 107H47.7529L42.748 99.7363C42.6546 99.7375 42.5603 99.7402 42.4658 99.7402H37.2168V107H31.1855V80.9385H42.4658ZM102.454 80.9385C105.284 80.9385 107.778 81.4842 109.938 82.5762C112.097 83.6435 113.785 85.146 115.001 87.082C116.217 89.0178 116.825 91.3133 116.825 93.9688C116.825 96.5996 116.217 98.8957 115.001 100.856C113.785 102.792 112.097 104.307 109.938 105.399C107.778 106.467 105.284 107 102.454 107H90.6152V80.9385H102.454ZM140.324 85.7783H126.623V91.4375H138.724V96.1289H126.623V102.16H140.809V107H120.629V80.9385H140.324V85.7783ZM173.892 107H167.86V80.9385H173.892V107ZM225.255 96.749V80.9385H231.212V107H226.261L213.267 91.1807V107H207.31V80.9385H212.299L225.255 96.749ZM96.6465 102.048H102.156C103.894 102.048 105.395 101.725 106.661 101.08C107.952 100.41 108.945 99.4671 109.64 98.251C110.359 97.0348 110.72 95.6069 110.72 93.9688C110.72 92.306 110.359 90.8788 109.64 89.6875C108.945 88.4714 107.952 87.5408 106.661 86.8955C105.395 86.2254 103.894 85.8906 102.156 85.8906H96.6465V102.048ZM10.4072 96.8359H18.6865L14.5547 86.8604L10.4072 96.8359ZM37.2168 94.9375H42.1309C43.9922 94.9375 45.3824 94.5402 46.3008 93.7461C47.219 92.9271 47.6786 91.8101 47.6787 90.3955C47.6787 88.9559 47.2191 87.8382 46.3008 87.0439C45.3824 86.2499 43.9922 85.8525 42.1309 85.8525H37.2168V94.9375ZM120.582 4.03418L156.582 56.1279L160.255 61.4424H75.335L79.0068 56.1279L80.043 54.627L80.1055 54.6699V54.666H91.335V14H106.835V27H117.335V54.666H147.334L117.794 11.9189L108.335 25.6064V13.6885L115.007 4.03418L117.795 0L120.582 4.03418ZM95.335 54.666H102.835V18H95.335V54.666ZM106.835 54.666H113.335V31H106.835V54.666Z" fill="white"/>
</svg>
